<svg xmlns="http://www.w3.org/2000/svg" viewBox="0 0 512 512" fill="none">
  <!-- На тёмном -->
  <g transform="translate(42.81,5.12) scale(0.837663)">
    <g transform="translate(0,599) scale(0.1,-0.1)">
      <path d="M1646 5688 c-65 -57 -132 -114 -150 -128 -43 -34 -226 -191 -226 -195 0 -1 77 -51 171 -110 l171 -108 32 18 c17 11 52 34 79 53 l47 34 0 269 c0 148 -2 269 -3 269 -2 0 -57 -46 -121 -102z M1876 5518 l2 -272 33 -24 c19 -13 53 -35 77 -49 l42 -25 116 73 c63 41 140 89 171 108 l56 34 -39 36 c-38 34 -176 153 -220 189 -11 9 -68 59 -126 110 -59 50 -108 92 -110 92 -2 0 -2 -122 -2 -272z M1220 4966 c0 -168 3 -306 7 -306 8 0 292 178 316 198 14 12 17 32 17 106 l0 91 -142 90 c-78 50 -154 98 -170 108 l-28 19 0 -306z M1485 4694 c-71 -47 -144 -92 -162 -100 -58 -28 -56 -34 27 -109 44 -38 75 -74 71 -78 -5 -5 -90 -7 -190 -5 -100 1 -181 0 -181 -3 0 -9 48 -74 118 -159 34 -41 82 -101 108 -132 l47 -58 497 0 497 0 52 63 c60 73 231 289 231 292 0 1 -85 -1 -190 -3 -157 -4 -190 -2 -190 9 0 8 34 43 75 78 41 35 72 68 69 72 -3 5 -35 27 -72 49 -37 23 -109 68 -161 100 -51 33 -97 60 -102 60 -16 0 -149 -93 -149 -104 -1 -6 -2 -67 -3 -136 l-2 -125 -52 -3 -53 -3 0 135 0 134 -67 49 c-37 26 -72 51 -77 54 -6 4 -69 -31 -141 -77z M1311 3838 c-6 -46 -29 -225 -51 -398 -21 -173 -51 -407 -65 -520 -15 -113 -35 -281 -46 -375 -11 -93 -26 -219 -34 -280 -8 -60 -24 -184 -35 -275 -11 -91 -34 -268 -50 -395 -16 -126 -35 -273 -40 -325 -6 -52 -20 -162 -30 -245 -10 -82 -22 -175 -25 -205 l-6 -55 103 -54 c57 -29 139 -73 184 -97 l81 -43 134 88 c235 155 371 242 384 247 11 5 108 -54 220 -132 17 -12 57 -38 90 -59 33 -21 93 -60 133 -87 41 -26 81 -48 90 -48 10 0 58 23 107 50 50 27 127 69 173 92 62 32 82 47 82 63 0 11 -11 110 -25 220 -13 110 -33 274 -45 365 -11 91 -29 235 -40 320 -11 85 -38 301 -60 480 -22 179 -52 415 -66 525 -13 110 -32 256 -40 325 -8 69 -28 226 -44 350 -16 124 -36 288 -45 365 -9 77 -18 150 -21 163 l-4 22 -499 0 -499 0 -11 -82z M1735 666 c-194 -130 -411 -269 -425 -273 -8 -2 -126 55 -262 127 l-247 132 -48 -25 c-26 -14 -111 -57 -188 -95 -77 -38 -190 -95 -251 -127 l-112 -57 32 -69 c32 -71 45 -80 81 -55 11 7 125 66 252 131 l232 117 188 -100 c337 -179 323 -173 344 -161 11 5 72 45 137 88 64 43 170 112 234 155 l117 76 88 -56 c48 -31 159 -104 246 -162 130 -86 163 -103 185 -99 15 3 91 39 167 80 77 41 185 97 239 126 l99 52 121 -61 c67 -33 183 -92 259 -130 75 -39 142 -68 147 -65 11 7 44 68 60 110 9 22 2 27 -143 101 -84 42 -210 107 -282 144 -165 84 -157 82 -196 61 -30 -16 -132 -69 -383 -200 -43 -22 -83 -41 -88 -41 -6 0 -53 29 -107 64 -264 174 -394 258 -404 261 -7 2 -48 -20 -92 -49z" fill="#F0F0F5" fill-rule="nonzero"/>
      <path d="M4720 5529 c-208 -38 -799 -140 -1175 -204 -110 -18 -247 -43 -305 -54 -58 -12 -136 -25 -175 -31 -38 -5 -133 -21 -210 -35 -77 -14 -174 -30 -215 -36 -41 -7 -81 -16 -87 -22 -10 -7 -13 -58 -13 -193 0 -182 0 -184 23 -189 35 -8 182 -33 292 -50 55 -8 123 -19 150 -25 305 -57 720 -131 850 -150 39 -6 131 -22 205 -36 136 -26 436 -77 672 -116 70 -11 134 -18 143 -15 13 6 15 71 15 576 0 313 -3 576 -6 585 -8 20 -31 19 -164 -5z M2263 5167 c-68 -45 -136 -90 -153 -99 -29 -16 -30 -20 -30 -85 0 -95 5 -107 63 -150 85 -63 256 -165 267 -158 6 4 10 113 10 291 0 264 -1 284 -17 283 -10 0 -73 -37 -140 -82z" fill="#FFB200" fill-rule="nonzero"/>
    </g>
  </g>
</svg>