<svg xmlns="http://www.w3.org/2000/svg" viewBox="0 0 921 256" fill="none">
  <!-- На светлом — горизонтальная компоновка -->
  <g transform="scale(0.5)">
    <g transform="translate(42.81,5.12) scale(0.837663)">
    <g transform="translate(0,599) scale(0.1,-0.1)">
      <path d="M1646 5688 c-65 -57 -132 -114 -150 -128 -43 -34 -226 -191 -226 -195 0 -1 77 -51 171 -110 l171 -108 32 18 c17 11 52 34 79 53 l47 34 0 269 c0 148 -2 269 -3 269 -2 0 -57 -46 -121 -102z M1876 5518 l2 -272 33 -24 c19 -13 53 -35 77 -49 l42 -25 116 73 c63 41 140 89 171 108 l56 34 -39 36 c-38 34 -176 153 -220 189 -11 9 -68 59 -126 110 -59 50 -108 92 -110 92 -2 0 -2 -122 -2 -272z M1220 4966 c0 -168 3 -306 7 -306 8 0 292 178 316 198 14 12 17 32 17 106 l0 91 -142 90 c-78 50 -154 98 -170 108 l-28 19 0 -306z M1485 4694 c-71 -47 -144 -92 -162 -100 -58 -28 -56 -34 27 -109 44 -38 75 -74 71 -78 -5 -5 -90 -7 -190 -5 -100 1 -181 0 -181 -3 0 -9 48 -74 118 -159 34 -41 82 -101 108 -132 l47 -58 497 0 497 0 52 63 c60 73 231 289 231 292 0 1 -85 -1 -190 -3 -157 -4 -190 -2 -190 9 0 8 34 43 75 78 41 35 72 68 69 72 -3 5 -35 27 -72 49 -37 23 -109 68 -161 100 -51 33 -97 60 -102 60 -16 0 -149 -93 -149 -104 -1 -6 -2 -67 -3 -136 l-2 -125 -52 -3 -53 -3 0 135 0 134 -67 49 c-37 26 -72 51 -77 54 -6 4 -69 -31 -141 -77z M1311 3838 c-6 -46 -29 -225 -51 -398 -21 -173 -51 -407 -65 -520 -15 -113 -35 -281 -46 -375 -11 -93 -26 -219 -34 -280 -8 -60 -24 -184 -35 -275 -11 -91 -34 -268 -50 -395 -16 -126 -35 -273 -40 -325 -6 -52 -20 -162 -30 -245 -10 -82 -22 -175 -25 -205 l-6 -55 103 -54 c57 -29 139 -73 184 -97 l81 -43 134 88 c235 155 371 242 384 247 11 5 108 -54 220 -132 17 -12 57 -38 90 -59 33 -21 93 -60 133 -87 41 -26 81 -48 90 -48 10 0 58 23 107 50 50 27 127 69 173 92 62 32 82 47 82 63 0 11 -11 110 -25 220 -13 110 -33 274 -45 365 -11 91 -29 235 -40 320 -11 85 -38 301 -60 480 -22 179 -52 415 -66 525 -13 110 -32 256 -40 325 -8 69 -28 226 -44 350 -16 124 -36 288 -45 365 -9 77 -18 150 -21 163 l-4 22 -499 0 -499 0 -11 -82z M1735 666 c-194 -130 -411 -269 -425 -273 -8 -2 -126 55 -262 127 l-247 132 -48 -25 c-26 -14 -111 -57 -188 -95 -77 -38 -190 -95 -251 -127 l-112 -57 32 -69 c32 -71 45 -80 81 -55 11 7 125 66 252 131 l232 117 188 -100 c337 -179 323 -173 344 -161 11 5 72 45 137 88 64 43 170 112 234 155 l117 76 88 -56 c48 -31 159 -104 246 -162 130 -86 163 -103 185 -99 15 3 91 39 167 80 77 41 185 97 239 126 l99 52 121 -61 c67 -33 183 -92 259 -130 75 -39 142 -68 147 -65 11 7 44 68 60 110 9 22 2 27 -143 101 -84 42 -210 107 -282 144 -165 84 -157 82 -196 61 -30 -16 -132 -69 -383 -200 -43 -22 -83 -41 -88 -41 -6 0 -53 29 -107 64 -264 174 -394 258 -404 261 -7 2 -48 -20 -92 -49z" fill="#14141C" fill-rule="nonzero"/>
      <path d="M4720 5529 c-208 -38 -799 -140 -1175 -204 -110 -18 -247 -43 -305 -54 -58 -12 -136 -25 -175 -31 -38 -5 -133 -21 -210 -35 -77 -14 -174 -30 -215 -36 -41 -7 -81 -16 -87 -22 -10 -7 -13 -58 -13 -193 0 -182 0 -184 23 -189 35 -8 182 -33 292 -50 55 -8 123 -19 150 -25 305 -57 720 -131 850 -150 39 -6 131 -22 205 -36 136 -26 436 -77 672 -116 70 -11 134 -18 143 -15 13 6 15 71 15 576 0 313 -3 576 -6 585 -8 20 -31 19 -164 -5z M2263 5167 c-68 -45 -136 -90 -153 -99 -29 -16 -30 -20 -30 -85 0 -95 5 -107 63 -150 85 -63 256 -165 267 -158 6 4 10 113 10 291 0 264 -1 284 -17 283 -10 0 -73 -37 -140 -82z" fill="#FFB200" fill-rule="nonzero"/>
    </g>
  </g>
  </g>
  <g transform="translate(286,163.44615384615383) scale(0.11815384615384616,-0.11815384615384616)" fill="#14141C">
    <path d="M36 246H247Q252 215 276.0 192.0Q300 169 340.5 156.5Q381 144 436 144Q512 144 556.0 163.5Q600 183 600 221Q600 250 575.0 266.0Q550 282 479 289L339 302Q184 316 114.0 372.5Q44 429 44 525Q44 603 89.5 657.0Q135 711 217.5 738.5Q300 766 410 766Q518 766 602.0 735.5Q686 705 735.5 649.0Q785 593 789 519H579Q575 546 553.5 565.5Q532 585 495.0 595.5Q458 606 406 606Q336 606 295.0 587.5Q254 569 254 533Q254 507 278.5 491.0Q303 475 367 469L516 454Q623 444 687.0 419.5Q751 395 780.0 352.0Q809 309 809 245Q809 166 762.0 107.5Q715 49 630.0 16.5Q545 -16 432 -16Q316 -16 227.5 16.5Q139 49 89.0 108.5Q39 168 36 246Z" transform="translate(0,0)"/>
    <path d="M56 580 159 560 261 580V0H56ZM158 627Q105 627 72.0 653.5Q39 680 39 726Q39 771 72.0 798.0Q105 825 158 825Q213 825 245.5 798.0Q278 771 278 726Q278 680 245.5 653.5Q213 627 158 627Z" transform="translate(843,0)"/>
    <path d="M555 144V164Q550 159 545 154Q504 113 444.5 86.5Q385 60 310 60Q229 60 166.0 93.0Q103 126 66.5 185.5Q30 245 30 324Q30 404 66.5 463.0Q103 522 166.0 555.0Q229 588 310 588Q370 588 420.0 569.5Q470 551 509 521Q535 500 555 478V571H759V152Q759 47 710.0 -28.0Q661 -103 573.5 -142.0Q486 -181 367 -181Q288 -181 220.5 -160.5Q153 -140 86 -100V54Q148 8 216.5 -12.5Q285 -33 354 -33Q452 -33 503.5 9.0Q555 51 555 144ZM379 199Q438 199 484.0 230.0Q530 261 562 324Q529 388 483.0 418.5Q437 449 379 449Q335 449 302.5 434.0Q270 419 253.0 390.5Q236 362 236 324Q236 287 253.0 258.5Q270 230 302.0 214.5Q334 199 379 199Z" transform="translate(1160,0)"/>
    <path d="M29 571H234L253 452Q256 457 259 462Q298 524 355.0 556.0Q412 588 481 588Q563 588 621.0 555.0Q679 522 709.5 462.0Q740 402 740 320V0H536V290Q536 354 503.5 388.0Q471 422 410 422Q368 422 336.5 404.0Q305 386 288.0 353.0Q271 320 271 275V0H67V374Z" transform="translate(1973,0)"/>
    <path d="M572 0 557 116Q518 56 460 22Q396 -16 315 -16Q231 -16 167.5 21.5Q104 59 68.0 127.5Q32 196 32 285Q32 376 68.0 444.0Q104 512 167.5 550.0Q231 588 315 588Q396 588 460 551Q518 516 558 457L572 571H784L748 286L784 0ZM239 285Q239 243 256.5 210.0Q274 177 305.0 158.5Q336 140 376 140Q418 140 455.0 158.5Q492 177 520.0 210.0Q548 243 562 285Q548 328 520.0 361.0Q492 394 455.0 413.0Q418 432 376 432Q336 432 305.0 413.0Q274 394 256.5 361.0Q239 328 239 285Z" transform="translate(2762,0)"/>
    <path d="M29 571H237L262 419Q277 462 300 497Q327 539 368.0 563.5Q409 588 468 588Q485 588 503.0 586.0Q521 584 539 580V406Q509 412 482.5 414.5Q456 417 434 417Q390 417 353.0 399.5Q316 382 293.5 342.0Q271 302 271 235V0H67V379Z" transform="translate(3588,0)"/>
    <path d="M56 580 159 560 261 580V0H56ZM158 627Q105 627 72.0 653.5Q39 680 39 726Q39 771 72.0 798.0Q105 825 158 825Q213 825 245.5 798.0Q278 771 278 726Q278 680 245.5 653.5Q213 627 158 627Z" transform="translate(4141,0)"/>
    <path d="M718 186Q718 120 678.0 75.0Q638 30 564.0 7.0Q490 -16 386 -16Q279 -16 198.5 10.0Q118 36 73.0 83.0Q28 130 25 192H232Q239 169 259.5 152.5Q280 136 314.0 127.5Q348 119 395 119Q456 119 487.5 131.0Q519 143 519 167Q519 186 495.0 195.5Q471 205 413 210L312 218Q211 225 151.5 248.5Q92 272 66.0 309.5Q40 347 40 395Q40 460 80.5 502.5Q121 545 193.5 566.5Q266 588 363 588Q459 588 534.0 563.0Q609 538 654.0 493.5Q699 449 706 389H499Q494 408 477.0 423.5Q460 439 430.0 449.0Q400 459 353 459Q298 459 269.5 447.0Q241 435 241 413Q241 396 258.5 386.0Q276 376 324 372L457 362Q556 356 613.0 333.5Q670 311 694.0 274.0Q718 237 718 186Z" transform="translate(4458,0)"/>
  </g>
</svg>